<?xml version="1.0" encoding="UTF-8" standalone="no"?>
<svg
   version="1.1"
   viewBox="0 0 27.9 32"
   id="svg3"
   sodipodi:docname="matrix.svg"
   inkscape:export-filename="matrix.svg"
   inkscape:export-xdpi="96"
   inkscape:export-ydpi="96"
   inkscape:version="1.4 (86a8ad7, 2024-10-11)"
   xmlns:inkscape="http://www.inkscape.org/namespaces/inkscape"
   xmlns:sodipodi="http://sodipodi.sourceforge.net/DTD/sodipodi-0.dtd"
   xmlns="http://www.w3.org/2000/svg"
   xmlns:svg="http://www.w3.org/2000/svg">
  <defs
     id="defs3" />
  <sodipodi:namedview
     id="namedview3"
     pagecolor="#ffffff"
     bordercolor="#000000"
     borderopacity="0.25"
     inkscape:showpageshadow="2"
     inkscape:pageopacity="0.0"
     inkscape:pagecheckerboard="0"
     inkscape:deskcolor="#d1d1d1"
     inkscape:zoom="37.90625"
     inkscape:cx="13.942292"
     inkscape:cy="16.01319"
     inkscape:window-width="2560"
     inkscape:window-height="1494"
     inkscape:window-x="2259"
     inkscape:window-y="1609"
     inkscape:window-maximized="1"
     inkscape:current-layer="svg3" />
  <title
     id="title1">Matrix (protocol) logo</title>
  <g
     transform="translate(-.095 .005)"
     fill="#040404"
     id="g3">
    <path
       d="m27.1 31.2v-30.5h-2.19v-0.732h3.04v32h-3.04v-0.732z"
       id="path1" />
    <path
       d="m8.23 10.4v1.54h0.044c0.385-0.564 0.893-1.03 1.49-1.37 0.58-0.323 1.25-0.485 1.99-0.485 0.72 0 1.38 0.14 1.97 0.42 0.595 0.279 1.05 0.771 1.36 1.48 0.338-0.5 0.796-0.941 1.38-1.32 0.58-0.383 1.27-0.574 2.06-0.574 0.602 0 1.16 0.074 1.67 0.22 0.514 0.148 0.954 0.383 1.32 0.707 0.366 0.323 0.653 0.746 0.859 1.27 0.205 0.522 0.308 1.15 0.308 1.89v7.63h-3.13v-6.46c0-0.383-0.015-0.743-0.044-1.08-0.0209-0.307-0.103-0.607-0.242-0.882-0.133-0.251-0.336-0.458-0.584-0.596-0.257-0.146-0.606-0.22-1.05-0.22-0.44 0-0.796 0.085-1.07 0.253-0.272 0.17-0.485 0.39-0.639 0.662-0.159 0.287-0.264 0.602-0.308 0.927-0.052 0.347-0.078 0.697-0.078 1.05v6.35h-3.13v-6.4c0-0.338-7e-3 -0.673-0.021-1-0.0114-0.314-0.0749-0.623-0.188-0.916-0.108-0.277-0.3-0.512-0.55-0.673-0.258-0.168-0.636-0.253-1.14-0.253-0.198 0.0083-0.394 0.042-0.584 0.1-0.258 0.0745-0.498 0.202-0.705 0.374-0.228 0.184-0.422 0.449-0.584 0.794-0.161 0.346-0.242 0.798-0.242 1.36v6.62h-3.13v-11.4z"
       id="path2" />
    <path
       d="m0.936 0.732v30.5h2.19v0.732h-3.04v-32h3.03v0.732z"
       id="path3" />
  </g>
  <path
     style="fill:#6e6e6e;stroke-width:0.0263809"
     d="m 5.1706513,16.135815 v -5.681169 l 0.2176422,-0.01694 c 0.1197032,-0.0093 0.7845012,-0.01701 1.4773289,-0.0171 l 1.2596868,-1.58e-4 v 0.765046 c 0,0.634217 0.00625,0.765045 0.036537,0.765045 0.020095,0 0.055608,-0.02911 0.078917,-0.06468 0.1153728,-0.176081 0.4619058,-0.560573 0.6662173,-0.739195 0.5558152,-0.485927 1.0457895,-0.751038 1.6846415,-0.911512 1.429006,-0.3589539 3.135502,0.05105 3.867631,0.929237 0.165792,0.198868 0.329245,0.44787 0.444592,0.677285 0.0465,0.09247 0.09358,0.157767 0.104626,0.145095 0.01105,-0.01267 0.07746,-0.09897 0.147577,-0.19177 0.284559,-0.376618 0.688169,-0.74924 1.142293,-1.054592 0.433857,-0.291725 0.83684,-0.458638 1.35672,-0.561944 0.245204,-0.04872 0.38471,-0.059 0.79836,-0.05878 1.310285,6.73e-4 2.298643,0.316195 2.997457,0.956903 0.521814,0.478425 0.891151,1.211336 1.038653,2.061097 0.08215,0.473275 0.09203,0.988346 0.09227,4.807914 l 2.32e-4,3.845013 h -1.555202 -1.555202 l -0.01001,-3.699918 c -0.01026,-3.791266 -0.01258,-3.878222 -0.114258,-4.280297 -0.157183,-0.621555 -0.596352,-1.057274 -1.202362,-1.192917 -0.296556,-0.06638 -0.972693,-0.05837 -1.243135,0.01472 -0.759917,0.205384 -1.235658,0.823185 -1.40687,1.826973 -0.04294,0.251731 -0.04754,0.568964 -0.05541,3.816186 l -0.0086,3.541633 h -1.554331 -1.554331 l -0.0094,-3.818632 c -0.0092,-3.761079 -0.01018,-3.82221 -0.0644,-4.056059 C 12.100551,13.304117 11.850698,12.946302 11.407188,12.73742 11.084821,12.585594 10.54012,12.523937 10.138243,12.593782 9.3978065,12.722469 8.9036729,13.088519 8.5671532,13.757633 8.5160722,13.859199 8.4485124,14.028881 8.4170202,14.134705 8.2870248,14.57153 8.2846014,14.648434 8.28405,18.3545 l -5.149e-4,3.46249 H 6.7271228 5.1706513 Z"
     id="path4" />
  <path
     style="fill:#6e6e6e;stroke-width:0.0263809"
     d="m 24.824402,31.621427 v -0.35219 l 0.241481,-0.01714 c 0.132814,-0.0094 0.552507,-0.01714 0.932651,-0.01714 0.380144,0 0.76414,-0.0076 0.853326,-0.01695 l 0.162155,-0.01695 V 15.94348 0.68590272 h -1.094806 -1.094807 v -0.3561418 -0.35614179 h 1.50371 1.50371 v 15.99999987 16 h -1.50371 -1.50371 z"
     id="path5" />
  <path
     style="fill:#6e6e6e;stroke-width:0.0263809"
     d="M 0,15.960429 V -0.02638087 h 1.5037098 1.5037098 v 0.35197871 0.35197868 l -0.4790847,0.0173535 c -0.2634967,0.009544 -0.7561595,0.0173535 -1.0948063,0.0173535 H 0.81780709 V 15.98681 31.261336 H 1.9126134 3.0074196 v 0.342951 0.342951 H 1.5037098 0 Z"
     id="path6" />
</svg>
